<?xml version="1.0" encoding="utf-8"?>
<!-- Generator: Adobe Illustrator 24.2.1, SVG Export Plug-In . SVG Version: 6.00 Build 0)  -->
<svg version="1.1" id="Layer_1" xmlns="http://www.w3.org/2000/svg" xmlns:xlink="http://www.w3.org/1999/xlink" x="0px" y="0px"
	 viewBox="0 0 50.22 51.45" style="enable-background:new 0 0 50.22 51.45;" xml:space="preserve">
<style type="text/css">
	.st0{fill:none;stroke:#AC3F21;stroke-width:2;stroke-miterlimit:10;}
	.st1{fill:none;stroke:#000000;stroke-width:2;stroke-miterlimit:10;}
</style>
<g>
	<g>
		<path class="st0" d="M33.18,10.77c-1.76,1.18-3.53,3.28-3.53,5.56c0,2.79,4.16,6.33,4.16,6.33c3,2.49,4.9,6.25,4.9,10.46
			c0,4.21-1.91,7.97-4.9,10.47c-0.43,0.36-0.88,0.69-1.35,0.99h-14.7c-0.48-0.3-0.93-0.64-1.36-1c-3-2.5-4.9-6.26-4.9-10.46
			c0-4.2,1.91-7.96,4.9-10.46c0,0,4.23-3.52,4.23-6.33c0-2.27-1.71-4.28-3.47-5.47"/>
		<path class="st0" d="M34.27,8.85c0,0.55-0.18,1.05-0.45,1.42c-0.28,0.36-0.67,0.59-1.09,0.59H17.48c-0.85,0-1.54-0.9-1.54-2.01
			c0-0.55,0.17-1.05,0.45-1.41l0.01-0.01c0.05-0.07,0.11-0.13,0.17-0.19c0.25-0.25,0.57-0.39,0.91-0.39h15.25
			c0.34,0,0.66,0.14,0.91,0.39c0.06,0.06,0.12,0.12,0.17,0.18C34.1,7.79,34.27,8.3,34.27,8.85z"/>
	</g>
	<path class="st1" d="M4.56,46.25c0,0,0-2.19,0-3.31V1h41.1v41.94c0,1.12,0,3.31,0,3.31"/>
	<polyline class="st1" points="1,51.45 1,46.25 49.22,46.25 49.22,51.45 	"/>
</g>
</svg>
