<?xml version="1.0" encoding="utf-8"?>
<!-- Generator: Adobe Illustrator 24.2.1, SVG Export Plug-In . SVG Version: 6.00 Build 0)  -->
<svg version="1.1" id="Layer_1" xmlns="http://www.w3.org/2000/svg" xmlns:xlink="http://www.w3.org/1999/xlink" x="0px" y="0px"
	 viewBox="0 0 50.71 52.45" style="enable-background:new 0 0 50.71 52.45;" xml:space="preserve">
<style type="text/css">
	.st0{fill:none;stroke:#AC3F21;stroke-width:2;stroke-miterlimit:10;}
	.st1{fill:none;stroke:#000000;stroke-width:2;stroke-miterlimit:10;}
	.st2{fill:#FFFFFF;stroke:#000000;stroke-width:2;stroke-miterlimit:10;}
</style>
<g>
	<g>
		<path class="st0" d="M36.22,6.23c-2.35,1.58-4.72,4.39-4.72,7.44c0,3.73,5.56,8.46,5.56,8.46c4.01,3.33,6.56,8.36,6.56,13.99
			c0,5.63-2.55,10.66-6.56,14c-0.58,0.48-1.18,0.92-1.81,1.33H15.59c-0.64-0.4-1.24-0.85-1.81-1.33c-4.01-3.34-6.56-8.37-6.56-13.99
			c0-5.62,2.55-10.65,6.56-13.98c0,0,5.66-4.71,5.66-8.47c0-3.04-2.28-5.72-4.63-7.32"/>
		<path class="st0" d="M37.68,3.67c0,0.74-0.23,1.41-0.6,1.9c-0.37,0.48-0.89,0.78-1.45,0.78h-20.4c-1.14,0-2.06-1.2-2.06-2.68
			c0-0.74,0.23-1.4,0.6-1.89l0.01-0.01c0.07-0.1,0.15-0.17,0.23-0.25C14.34,1.19,14.76,1,15.22,1h20.4c0.46,0,0.88,0.19,1.22,0.52
			C36.92,1.6,37,1.68,37.06,1.77C37.44,2.25,37.68,2.93,37.68,3.67z"/>
	</g>
	<path class="st1" d="M3.84,20.35c0.01-0.08,0.06-0.08,0.07,0c0.21,2.03,1.35,3.63,2.79,3.92c0.07,0.01,0.07,0.08,0,0.09
		c-1.44,0.28-2.58,1.89-2.79,3.92c-0.01,0.08-0.06,0.08-0.07,0c-0.21-2.03-1.35-3.63-2.79-3.92c-0.07-0.01-0.07-0.08,0-0.09
		C2.49,23.98,3.63,22.38,3.84,20.35z"/>
	<path class="st1" d="M40.83,8.36c0.01-0.08,0.06-0.08,0.07,0c0.21,2.03,1.35,3.63,2.79,3.92c0.07,0.01,0.07,0.08,0,0.09
		c-1.44,0.28-2.58,1.89-2.79,3.92c-0.01,0.08-0.06,0.08-0.07,0c-0.21-2.03-1.35-3.63-2.79-3.92c-0.07-0.01-0.07-0.08,0-0.09
		C39.48,11.99,40.62,10.39,40.83,8.36z"/>
	<g>
		<path class="st2" d="M49.42,43.19l-0.64,0.85c-0.49,0.65-1.41,0.78-2.06,0.3l-10.43-7.81c-0.65-0.49-0.78-1.41-0.3-2.06l0.64-0.85
			c0.49-0.65,1.41-0.78,2.06-0.3l10.43,7.81C49.77,41.62,49.9,42.54,49.42,43.19z"/>
		<path class="st2" d="M35.35,29.96c-2.45-0.25-4.54-1.51-5.28-2.01c-0.19-0.13-0.48,0.02-0.51,0.27c-0.15,1.37,0.62,5.34,2.46,6.21
			c1.61,0.76,3.33,0.93,4.25-0.3S37.16,30.15,35.35,29.96z"/>
	</g>
</g>
</svg>
