<?xml version="1.0" encoding="utf-8"?>
<!-- Generator: Adobe Illustrator 24.2.1, SVG Export Plug-In . SVG Version: 6.00 Build 0)  -->
<svg version="1.1" id="Layer_1" xmlns="http://www.w3.org/2000/svg" xmlns:xlink="http://www.w3.org/1999/xlink" x="0px" y="0px"
	 viewBox="0 0 50.21 57.61" style="enable-background:new 0 0 50.21 57.61;" xml:space="preserve">
<style type="text/css">
	.st0{fill:none;stroke:#000000;stroke-width:2;stroke-miterlimit:10;}
	.st1{fill:#FFFFFF;stroke:#AC3F21;stroke-width:2;stroke-miterlimit:10;}
</style>
<g>
	<ellipse class="st0" cx="25.11" cy="51.45" rx="24.11" ry="5.16"/>
	<g>
		<path class="st1" d="M35.91,6.23c-2.35,1.58-4.72,4.39-4.72,7.44c0,3.73,5.56,8.46,5.56,8.46c4.01,3.33,6.56,8.36,6.56,13.99
			c0,5.63-2.55,10.66-6.56,14c-0.58,0.48-1.18,0.92-1.81,1.33H15.28c-0.64-0.4-1.24-0.85-1.81-1.33C9.45,46.78,6.9,41.75,6.9,36.13
			c0-5.62,2.55-10.65,6.56-13.98c0,0,5.66-4.71,5.66-8.47c0-3.04-2.28-5.72-4.63-7.32"/>
		<path class="st1" d="M37.37,3.67c0,0.74-0.23,1.41-0.6,1.9c-0.37,0.48-0.89,0.78-1.45,0.78h-20.4c-1.14,0-2.06-1.2-2.06-2.68
			c0-0.74,0.23-1.4,0.6-1.89l0.01-0.01c0.07-0.1,0.15-0.17,0.23-0.25C14.03,1.19,14.45,1,14.91,1h20.4c0.46,0,0.88,0.19,1.22,0.52
			c0.08,0.08,0.15,0.16,0.22,0.24C37.13,2.25,37.37,2.93,37.37,3.67z"/>
	</g>
</g>
</svg>
