<?xml version="1.0" encoding="utf-8"?>
<!-- Generator: Adobe Illustrator 24.2.1, SVG Export Plug-In . SVG Version: 6.00 Build 0)  -->
<svg version="1.1" id="Layer_1" xmlns="http://www.w3.org/2000/svg" xmlns:xlink="http://www.w3.org/1999/xlink" x="0px" y="0px"
	 viewBox="0 0 34.5 33.5" style="enable-background:new 0 0 34.5 33.5;" xml:space="preserve">
<style type="text/css">
	.st0{fill:none;stroke:#B5500B;stroke-width:2.5;stroke-miterlimit:10;}
	.st1{fill:#B5500B;stroke:#B5500B;stroke-width:2.5;stroke-miterlimit:10;}
</style>
<g>
	<path class="st0" d="M25.9,1.3H8.4c-2.8,0-5.1,2.3-5.1,5.1v22.9h27.6V6.3C31,3.5,28.6,1.3,25.9,1.3z"/>
	<ellipse class="st1" cx="9.1" cy="25.1" rx="0.6" ry="0.6"/>
	<ellipse class="st1" cx="25" cy="25.1" rx="0.6" ry="0.6"/>
	<path class="st0" d="M9.6,32.3H7.9c-0.5,0-1-0.4-1-1v-2h3.7v2C10.6,31.9,10.3,32.3,9.6,32.3z"/>
	<path class="st0" d="M26.4,32.3h-1.7c-0.5,0-1-0.4-1-1v-2h3.7v2C27.3,31.9,26.9,32.3,26.4,32.3z"/>
	<path class="st0" d="M21,5.8h-8.4c-0.3,0-0.5-0.2-0.5-0.5V5.3c0-0.3,0.2-0.5,0.5-0.5H21c0.3,0,0.5,0.2,0.5,0.5v0.1
		C21.5,5.6,21.3,5.8,21,5.8z"/>
	<path class="st0" d="M2.5,16.1H3V8.1H2.5c-0.7,0-1.3,0.6-1.3,1.3V15C1.3,15.6,1.8,16.1,2.5,16.1z"/>
	<path class="st0" d="M32,16.1h-0.4V8.1H32c0.7,0,1.3,0.6,1.3,1.3V15C33.3,15.6,32.7,16.1,32,16.1z"/>
	<line class="st0" x1="3.3" y1="9.9" x2="30.4" y2="9.9"/>
	<line class="st0" x1="3.3" y1="21" x2="31" y2="21"/>
</g>
</svg>
