<?xml version="1.0" encoding="utf-8"?>
<!-- Generator: Adobe Illustrator 24.2.1, SVG Export Plug-In . SVG Version: 6.00 Build 0)  -->
<svg version="1.1" id="Layer_1" xmlns="http://www.w3.org/2000/svg" xmlns:xlink="http://www.w3.org/1999/xlink" x="0px" y="0px"
	 viewBox="0 0 34.4 33.5" style="enable-background:new 0 0 34.4 33.5;" xml:space="preserve">
<style type="text/css">
	.st0{fill:none;stroke:#E58D3E;stroke-width:2.5;stroke-miterlimit:10;}
</style>
<g>
	<path class="st0" d="M8.3,32.3h-3c-1,0-1.8-0.9-1.8-1.9v-3.9h6.7v3.9C10.1,31.5,9.4,32.3,8.3,32.3z"/>
	<path class="st0" d="M29.3,32.3h-3.1c-1,0-1.8-0.9-1.8-1.9v-3.9H31v3.9C31,31.5,30.3,32.3,29.3,32.3z"/>
	<line class="st0" x1="33.3" y1="9.3" x2="28.3" y2="9.3"/>
	<line class="st0" x1="6.2" y1="9.3" x2="1.4" y2="9.3"/>
	<ellipse class="st0" cx="6.3" cy="19" rx="1.2" ry="1.2"/>
	<ellipse class="st0" cx="28.3" cy="19" rx="1.2" ry="1.2"/>
	<rect x="13.4" y="19" class="st0" width="7.7" height="1.2"/>
	<path class="st0" d="M29.3,12.4c-0.6-0.2-1.2-0.3-1.9-0.3H7.1c-0.7,0-1.3,0.1-1.9,0.3l1-3.1l1.8-5.6c0.5-1.4,1.7-2.4,3.2-2.4h12
		c1.4,0,2.7,1,3.2,2.4l1.8,5.6L29.3,12.4z"/>
	<path class="st0" d="M33.2,18.1V26H1.3v-7.9c0-2.7,1.6-4.9,3.9-5.8C5.8,12.1,6.4,12,7.1,12h20.3c0.7,0,1.3,0.1,1.9,0.3
		C31.5,13.1,33.2,15.4,33.2,18.1z"/>
</g>
</svg>
