<?xml version="1.0" encoding="utf-8"?>
<!-- Generator: Adobe Illustrator 26.5.0, SVG Export Plug-In . SVG Version: 6.00 Build 0)  -->
<svg version="1.1" id="Layer_1" xmlns="http://www.w3.org/2000/svg" xmlns:xlink="http://www.w3.org/1999/xlink" x="0px" y="0px"
	 viewBox="0 0 26.4 36" style="enable-background:new 0 0 26.4 36;" xml:space="preserve">
<style type="text/css">
	.st0{fill:none;stroke:#000000;stroke-miterlimit:10;}
</style>
<g>
	<path class="st0" d="M19.2,13.5h-12c-1.5,0-2.7,1.2-2.7,2.7v16.6c0,1.5,1.2,2.7,2.7,2.7h12c1.5,0,2.7-1.2,2.7-2.7V16.2
		C21.9,14.7,20.7,13.5,19.2,13.5z"/>
	<path class="st0" d="M17.9,8.7H8.5c-0.9,0-1.7,0.8-1.7,1.7v1.4c0,0.9,0.8,1.7,1.7,1.7h9.4c0.9,0,1.7-0.8,1.7-1.7v-1.4
		C19.6,9.4,18.8,8.7,17.9,8.7z"/>
	<path class="st0" d="M18.1,8.7H8.3c0-2.1,1.3-3.2,1.9-3.5C10.7,4.9,12,4.3,12,2.7V1.8c0-0.7,0.5-1.3,1.2-1.3s1.2,0.6,1.2,1.3v0.9
		c0,1.5,1.3,2.2,1.9,2.5C16.9,5.5,18.1,6.5,18.1,8.7z"/>
	<line class="st0" x1="4.5" y1="18.3" x2="10.8" y2="18.3"/>
	<line class="st0" x1="4.5" y1="21.4" x2="9.3" y2="21.4"/>
	<line class="st0" x1="4.5" y1="24.5" x2="10.8" y2="24.5"/>
	<line class="st0" x1="4.5" y1="27.6" x2="9.3" y2="27.6"/>
	<line class="st0" x1="4.5" y1="30.6" x2="10.8" y2="30.6"/>
</g>
</svg>
