<?xml version="1.0" encoding="utf-8"?>
<!-- Generator: Adobe Illustrator 26.5.0, SVG Export Plug-In . SVG Version: 6.00 Build 0)  -->
<svg version="1.1" id="Layer_1" xmlns="http://www.w3.org/2000/svg" xmlns:xlink="http://www.w3.org/1999/xlink" x="0px" y="0px"
	 viewBox="0 0 94.2 104.9" style="enable-background:new 0 0 94.2 104.9;" xml:space="preserve">
<style type="text/css">
	.st0{fill:#FFFFFF;stroke:#231F20;stroke-width:4;stroke-miterlimit:10;}
	.st1{fill:none;stroke:#231F20;stroke-width:4;stroke-miterlimit:10;}
	.st2{fill:#FFFFFF;stroke:#000000;stroke-width:4;stroke-miterlimit:10;}
	.st3{stroke:#000000;stroke-width:4;stroke-miterlimit:10;}
	.st4{fill:none;stroke:#000000;stroke-width:3;stroke-miterlimit:10;}
</style>
<g>
	<rect x="26.9" y="30.8" class="st0" width="65.2" height="14.8"/>
	<path class="st0" d="M82.3,30.8H36.8c1.3-11.4,11-20.2,22.7-20.2C71.3,10.6,80.9,19.4,82.3,30.8z"/>
	<polygon class="st0" points="39.3,99.3 79.1,99.3 83.6,45.6 35.5,45.6 35.8,50.9 	"/>
	<polyline class="st1" points="59.5,29.7 59.5,2 72.2,2 	"/>
	<g>
		<path class="st2" d="M3.4,84.5c-3.3,9.4-0.4,16.3,5.8,18.1c3.4,1,15-0.7,16.9-10.4c1.9-9.8-5.7-33-5.7-33S6.7,74.9,3.4,84.5z"/>
		<path class="st2" d="M67.5,84.5c3.3,9.4,0.4,16.3-5.8,18.1c-3.4,1-15-0.7-16.9-10.4c-1.9-9.8,5.7-33,5.7-33S64.1,74.9,67.5,84.5z"
			/>
		<path class="st2" d="M59.1,88.7V90c0,5.1-4.2,9.3-9.3,9.3H21.3c-5.1,0-9.3-4.2-9.3-9.3v-1.4c0-2.8,1.2-5.3,3.2-7v-9.1
			c0-11.3,9.1-20.4,20.4-20.4c5.6,0,10.7,2.3,14.4,6s6,8.8,6,14.4v9.1C57.9,83.4,59.1,85.9,59.1,88.7z"/>
		<g>
			<path class="st3" d="M37.4,84.5c0,1-1.9,1.7-1.9,1.7s-1.9-0.8-1.9-1.7s0-1.7,1.9-1.7C37.4,82.7,37.4,83.5,37.4,84.5z"/>
			<path class="st4" d="M35.5,87c0,2.8-1.9,4.8-3.7,4.8s-3.2-1.1-3.2-4.8"/>
			<path class="st4" d="M35.5,87c0,2.8,1.9,4.8,3.7,4.8s3.2-1.1,3.2-4.8"/>
		</g>
		<circle cx="26.6" cy="76.6" r="2.4"/>
		<circle cx="43.5" cy="76.6" r="2.4"/>
		<g>
			<path class="st3" d="M37.4,84.5c0,1-1.9,1.7-1.9,1.7s-1.9-0.8-1.9-1.7s0-1.7,1.9-1.7C37.4,82.7,37.4,83.5,37.4,84.5z"/>
		</g>
	</g>
</g>
</svg>
