<?xml version="1.0" encoding="utf-8"?>
<!-- Generator: Adobe Illustrator 26.5.0, SVG Export Plug-In . SVG Version: 6.00 Build 0)  -->
<svg version="1.1" id="Layer_1" xmlns="http://www.w3.org/2000/svg" xmlns:xlink="http://www.w3.org/1999/xlink" x="0px" y="0px"
	 viewBox="0 0 97.9 90.4" style="enable-background:new 0 0 97.9 90.4;" xml:space="preserve">
<style type="text/css">
	.st0{fill:none;stroke:#231F20;stroke-width:4;stroke-miterlimit:10;}
	.st1{fill:none;stroke:#231F20;stroke-width:4;stroke-linecap:round;stroke-linejoin:round;stroke-miterlimit:10;}
</style>
<g>
	<g>
		<path class="st0" d="M21,66.3H3c-0.5,0-1-0.4-1-0.9V25.1c0-0.5,0.4-1,1-1h18.1c0.5,0,1,0.4,1,1v40.3C22,65.9,21.6,66.3,21,66.3z"
			/>
		<path class="st0" d="M21.6,24.3L60.8,6.1c1.1-0.5,2.3,0.3,2.3,1.5v75.2c0,1.2-1.2,2-2.3,1.5l-39-18.2"/>
	</g>
	<polyline class="st1" points="77.8,35.2 93.6,22.8 77.8,15.7 95.9,2 	"/>
	<polyline class="st1" points="95.9,88.4 80.1,76 95.9,68.9 77.8,55.2 	"/>
</g>
</svg>
