<?xml version="1.0" encoding="utf-8"?>
<!-- Generator: Adobe Illustrator 26.5.1, SVG Export Plug-In . SVG Version: 6.00 Build 0)  -->
<svg version="1.1" id="Layer_1" xmlns="http://www.w3.org/2000/svg" xmlns:xlink="http://www.w3.org/1999/xlink" x="0px" y="0px"
	 viewBox="0 0 87.71 104.92" style="enable-background:new 0 0 87.71 104.92;" xml:space="preserve">
<style type="text/css">
	.st0{fill:none;stroke:#231F20;stroke-width:4;stroke-miterlimit:10;}
</style>
<g>
	<g>
		<line class="st0" x1="71.79" y1="53.52" x2="71.79" y2="32.32"/>
		<polyline class="st0" points="71.79,55.73 71.79,53.52 71.79,32.32 		"/>
		<line class="st0" x1="57.11" y1="53.44" x2="57.11" y2="16.54"/>
		<line class="st0" x1="57.11" y1="53.44" x2="57.11" y2="16.54"/>
		<line class="st0" x1="42.44" y1="36.51" x2="42.44" y2="17.2"/>
		<polyline class="st0" points="42.44,17.2 42.44,36.51 42.44,48.87 		"/>
	</g>
	<path class="st0" d="M85.71,32.08L85.33,66.8c-0.04,3.49-0.5,6.99-1.56,10.34c-3.71,11.76-13.89,25.78-32.76,25.78
		c-14.11,0-25-9.85-30.93-18.58C20.06,84.33,3.14,56.09,3.14,56.09c-2.26-3.76-1.05-8.65,2.72-10.92c1.28-0.77,2.69-1.14,4.09-1.14
		c2.05,0,4.05,0.79,5.56,2.26c0.36,0.35,0.69,0.74,0.98,1.16l11.29,16.09V17.2c0-4,3.28-7.24,7.33-7.24c2.03,0,3.86,0.8,5.19,2.12
		c1.33,1.31,2.14,3.12,2.14,5.12V9.25c0-4.01,3.29-7.25,7.34-7.25c2.02,0,3.86,0.81,5.18,2.13c1.33,1.3,2.15,3.12,2.15,5.12v7.29
		c0-4.01,3.29-7.25,7.35-7.25c2.02,0,3.86,0.81,5.18,2.13c1.33,1.3,2.15,3.12,2.15,5.12v15.78c0-3.76,3.28-6.8,7.33-6.8
		C84.33,25.52,85.71,30.2,85.71,32.08z"/>
</g>
</svg>
