<?xml version="1.0" encoding="utf-8"?>
<!-- Generator: Adobe Illustrator 24.2.1, SVG Export Plug-In . SVG Version: 6.00 Build 0)  -->
<svg version="1.1" id="Layer_1" xmlns="http://www.w3.org/2000/svg" xmlns:xlink="http://www.w3.org/1999/xlink" x="0px" y="0px"
	 viewBox="0 0 116.7 109.4" style="enable-background:new 0 0 116.7 109.4;" xml:space="preserve">
<style type="text/css">
	.st0{fill:#FFFFFF;}
</style>
<path class="st0" d="M89.3,49.8V10.5c0-3.7-1.9-7.1-5.1-9s-7-2-10.3-0.3L55,11c-6.5,3.4-14.3,3.4-20.8,0L15.3,1.2
	C12.1-0.5,8.2-0.4,5.1,1.5c-3.2,2-5.1,5.3-5.1,9v94.4c0,2.5,2,4.5,4.5,4.5h82.3c16.5,0,29.9-13.4,29.9-29.9
	C116.7,63.9,104.6,51,89.3,49.8z M7.6,5.8c1.7-1,3.7-1.1,5.4-0.2l19,9.9c7.9,4.1,17.4,4.1,25.4,0l18.9-9.8c1.7-1,3.7-0.9,5.4,0.1
	s2.6,2.8,2.6,4.7v25c-5.3-8-14.4-13.3-24.6-13.3c-15.4,0-28.3,12.1-29.5,27.6c-0.1,1.2,0.3,2.5,1.2,3.4s2.1,1.4,3.3,1.4h49.5
	C82.9,67.2,72.4,77,59.7,77H49.2c-8,0-14.7,6-15.9,13.7H5V10.5C5,8.6,6,6.8,7.6,5.8z M84.2,49.6h-49C36.4,37,47.1,27.2,59.7,27.2
	C72.4,27.2,82.9,37.1,84.2,49.6z M60,90.7H38.4c1.1-5,5.5-8.7,10.8-8.7C54.4,82,58.8,85.7,60,90.7z M5,95.7h28.3
	c0.5,3.4,2.1,6.4,4.3,8.7H5V95.7z M86.8,104.4H49.2c-5.2,0-9.7-3.7-10.8-8.7h22.2c1.3,0,2.6-0.6,3.4-1.6c0.9-1,1.2-2.3,1-3.7
	c-0.6-3.3-2.1-6.2-4.2-8.5c15-0.5,27.1-12.3,28.4-27.3c12.6,1.2,22.5,11.9,22.5,24.8C111.7,93.3,100.5,104.4,86.8,104.4z"/>
</svg>
