<?xml version="1.0" encoding="utf-8"?>
<!-- Generator: Adobe Illustrator 24.2.1, SVG Export Plug-In . SVG Version: 6.00 Build 0)  -->
<svg version="1.1" id="Layer_1" xmlns="http://www.w3.org/2000/svg" xmlns:xlink="http://www.w3.org/1999/xlink" x="0px" y="0px"
	 viewBox="0 0 14.82 15" style="enable-background:new 0 0 14.82 15;" xml:space="preserve">
<style type="text/css">
	.st0{fill:#FFFFFF;}
</style>
<g>
	<path class="st0" d="M14.66,7.51l-3.18-3.4L7.83,0.18c-0.23-0.24-0.61-0.24-0.84,0L3.33,4.1l-3.18,3.4
		c-0.34,0.37-0.08,0.97,0.42,0.97H1.4c0.17,0,0.31,0.14,0.31,0.31v5.07c0,0.63,0.51,1.15,1.15,1.15h2.02c0.34,0,0.62-0.28,0.62-0.62
		v-3.53c0-0.69,0.56-1.24,1.24-1.24h1.34c0.69,0,1.24,0.56,1.24,1.24v3.53C9.32,14.72,9.6,15,9.94,15h2.02
		c0.63,0,1.15-0.51,1.15-1.15V8.78c0-0.17,0.14-0.31,0.31-0.31h0.82C14.74,8.47,15,7.88,14.66,7.51z"/>
</g>
</svg>
