<?xml version="1.0" encoding="utf-8"?>
<!-- Generator: Adobe Illustrator 26.5.0, SVG Export Plug-In . SVG Version: 6.00 Build 0)  -->
<svg version="1.1" id="Layer_1" xmlns="http://www.w3.org/2000/svg" xmlns:xlink="http://www.w3.org/1999/xlink" x="0px" y="0px"
	 viewBox="0 0 15 15" enable-background="new 0 0 15 15" xml:space="preserve">
<path d="M4.8,0.7C4.6,0.2,4-0.1,3.4,0L0.9,0.7C0.4,0.9,0,1.3,0,1.9C0,9.1,5.9,15,13.1,15c0.5,0,1-0.4,1.1-0.9l0.7-2.6
	c0.2-0.6-0.1-1.2-0.7-1.4L11.5,9c-0.5-0.2-1-0.1-1.4,0.3l-1.2,1.4c-2.1-1-3.7-2.6-4.7-4.7l1.4-1.2C6.1,4.6,6.2,4,6,3.5L4.8,0.7
	L4.8,0.7z"/>
</svg>
