<?xml version="1.0" encoding="utf-8"?>
<!-- Generator: Adobe Illustrator 24.2.1, SVG Export Plug-In . SVG Version: 6.00 Build 0)  -->
<svg version="1.1" id="Layer_1" xmlns="http://www.w3.org/2000/svg" xmlns:xlink="http://www.w3.org/1999/xlink" x="0px" y="0px"
	 viewBox="0 0 14 15.4" style="enable-background:new 0 0 14 15.4;" xml:space="preserve">
<style type="text/css">
	.st0{fill:none;stroke:#FFFFFF;stroke-width:0.75;stroke-miterlimit:10;}
	.st1{fill:#FFFFFF;}
</style>
<g>
	<path class="st0" d="M13.1,15H0.9c-0.3,0-0.6-0.2-0.6-0.6V2.3c0-0.3,0.2-0.6,0.6-0.6h12.1c0.3,0,0.6,0.2,0.6,0.6v12.1
		C13.6,14.8,13.4,15,13.1,15z"/>
	<line class="st0" x1="0.4" y1="5.3" x2="13.6" y2="5.3"/>
	<line class="st0" x1="3" y1="0" x2="3" y2="3.5"/>
	<g>
		<g>
			<rect x="10.4" y="7.4" class="st1" width="1.1" height="1.1"/>
		</g>
		<g>
			<rect x="7.8" y="7.4" class="st1" width="1.1" height="1.1"/>
		</g>
		<g>
			<rect x="5.1" y="7.4" class="st1" width="1.1" height="1.1"/>
		</g>
		<g>
			<rect x="2.5" y="9.6" class="st1" width="1.1" height="1.1"/>
		</g>
		<g>
			<rect x="10.4" y="9.6" class="st1" width="1.1" height="1.1"/>
		</g>
		<g>
			<rect x="7.8" y="9.6" class="st1" width="1.1" height="1.1"/>
		</g>
		<g>
			<rect x="5.1" y="9.6" class="st1" width="1.1" height="1.1"/>
		</g>
		<g>
			<rect x="2.5" y="11.8" class="st1" width="1.1" height="1.1"/>
		</g>
		<g>
			<rect x="7.8" y="11.8" class="st1" width="1.1" height="1.1"/>
		</g>
		<g>
			<rect x="5.1" y="11.8" class="st1" width="1.1" height="1.1"/>
		</g>
	</g>
	<line class="st0" x1="11" y1="0" x2="11" y2="3.5"/>
</g>
</svg>
