<?xml version="1.0" encoding="utf-8"?>
<!-- Generator: Adobe Illustrator 24.2.1, SVG Export Plug-In . SVG Version: 6.00 Build 0)  -->
<svg version="1.1" id="Layer_1" xmlns="http://www.w3.org/2000/svg" xmlns:xlink="http://www.w3.org/1999/xlink" x="0px" y="0px"
	 viewBox="0 0 12 10" style="enable-background:new 0 0 12 10;" xml:space="preserve">
<style type="text/css">
	.st0{fill:none;}
	.st1{fill:#231F20;}
</style>
<path class="st0" d="M4,1C3.6,1,3.3,1.2,3.2,1.5h1.7C4.7,1.2,4.4,1,4,1z"/>
<path class="st0" d="M4,3c0.4,0,0.7-0.2,0.8-0.5H3.2C3.3,2.8,3.6,3,4,3z"/>
<path class="st0" d="M8,7C7.6,7,7.3,7.2,7.2,7.5h1.7C8.7,7.2,8.4,7,8,7z"/>
<path class="st0" d="M8,9c0.4,0,0.7-0.2,0.8-0.5H7.2C7.3,8.8,7.6,9,8,9z"/>
<path class="st1" d="M5.9,1.5C6,1.7,6,1.8,6,2s0,0.3-0.1,0.5H12v-1H5.9z"/>
<path class="st1" d="M2.1,1.5H0v1h2.1C2,2.3,2,2.2,2,2S2,1.7,2.1,1.5z"/>
<path class="st1" d="M5.9,1.5C5.7,0.6,4.9,0,4,0S2.3,0.6,2.1,1.5C2,1.7,2,1.8,2,2s0,0.3,0.1,0.5C2.3,3.4,3.1,4,4,4s1.7-0.6,1.9-1.5
	C6,2.3,6,2.2,6,2S6,1.7,5.9,1.5z M4,3C3.6,3,3.3,2.8,3.2,2.5C3.1,2.4,3,2.2,3,2s0.1-0.4,0.2-0.5C3.3,1.2,3.6,1,4,1s0.7,0.2,0.8,0.5
	C4.9,1.6,5,1.8,5,2S4.9,2.4,4.8,2.5C4.7,2.8,4.4,3,4,3z"/>
<path class="st1" d="M6.1,7.5H0v1h6.1C6,8.3,6,8.2,6,8S6,7.7,6.1,7.5z"/>
<path class="st1" d="M10,8c0,0.2,0,0.3-0.1,0.5H12v-1H9.9C10,7.7,10,7.8,10,8z"/>
<path class="st1" d="M9.9,7.5C9.7,6.6,8.9,6,8,6S6.3,6.6,6.1,7.5C6,7.7,6,7.8,6,8s0,0.3,0.1,0.5C6.3,9.4,7.1,10,8,10
	s1.7-0.6,1.9-1.5C10,8.3,10,8.2,10,8S10,7.7,9.9,7.5z M8,9C7.6,9,7.3,8.8,7.2,8.5C7.1,8.4,7,8.2,7,8s0.1-0.4,0.2-0.5
	C7.3,7.2,7.6,7,8,7s0.7,0.2,0.8,0.5C8.9,7.7,9,7.8,9,8S8.9,8.4,8.8,8.5C8.7,8.8,8.4,9,8,9z"/>
</svg>
