<?xml version="1.0" encoding="utf-8"?>
<!-- Generator: Adobe Illustrator 26.5.0, SVG Export Plug-In . SVG Version: 6.00 Build 0)  -->
<svg version="1.1" id="Layer_1" xmlns="http://www.w3.org/2000/svg" xmlns:xlink="http://www.w3.org/1999/xlink" x="0px" y="0px"
	 viewBox="0 0 16 16" enable-background="new 0 0 16 16" xml:space="preserve">
<path fill="#FFFFFF" d="M16,6.2l0-0.1c0-0.2,0-0.4-0.1-0.6l-1.6-4.7C14.2,0.3,13.7,0,13.2,0H2.8C2.3,0,1.8,0.3,1.7,0.8L0.1,5.4
	C0,5.6,0,5.9,0,6.1l0,0.1c0,0.5,0.2,1,0.5,1.4v6.9C0.5,15.3,1.1,16,2,16H14c0.8,0,1.5-0.7,1.5-1.5V7.6C15.8,7.2,16,6.7,16,6.2z
	 M13.4,1.1L15,5.8c0,0.1,0,0.2,0,0.3l0,0.1c0,0.8-0.7,1.5-1.5,1.5c-0.5,0-1-0.3-1.3-0.7l-0.9-6h1.9C13.3,1,13.4,1,13.4,1.1z M5.6,1
	h2v5.8L7.5,6.9C7.2,7.4,6.7,7.7,6.2,7.7C5.7,7.7,5.2,7.4,5,7L5.6,1z M8.6,1h1.7l0.9,5.9l0,0.1c-0.3,0.5-0.8,0.7-1.3,0.7
	c-0.5,0-1-0.2-1.2-0.7V1z M1,6c0-0.1,0-0.2,0-0.3l1.6-4.7C2.6,1,2.7,1,2.8,1h1.9L4,6.7L3.8,6.9C3.6,7.4,3.1,7.7,2.5,7.7
	C1.7,7.7,1,7,1,6.2L1,6L1,6z M14,15H2c-0.3,0-0.5-0.2-0.5-0.5V8.4c0.3,0.1,0.7,0.2,1,0.2c0.7,0,1.4-0.3,1.8-0.8c0.9,1,2.7,1,3.6,0
	c0.9,1,2.7,1,3.6,0c0.5,0.5,1.1,0.8,1.8,0.8c0.4,0,0.7-0.1,1-0.2v6.1C14.5,14.8,14.3,15,14,15z"/>
</svg>
