<?xml version="1.0" encoding="utf-8"?>
<!-- Generator: Adobe Illustrator 26.5.0, SVG Export Plug-In . SVG Version: 6.00 Build 0)  -->
<svg version="1.1" id="Layer_1" xmlns="http://www.w3.org/2000/svg" xmlns:xlink="http://www.w3.org/1999/xlink" x="0px" y="0px"
	 viewBox="0 0 21.2 16.2" enable-background="new 0 0 21.2 16.2" xml:space="preserve">
<g>
	<g>
		<g>
			<path fill="#FFFFFF" d="M19.6,16.2h-18c-0.9,0-1.6-0.7-1.6-1.6v-3.1c0-0.7,0.5-1.3,1.2-1.6c0.8-0.2,1.3-1,1.3-1.8S2,6.6,1.2,6.3
				C0.5,6.1,0,5.5,0,4.8V1.6C0,0.7,0.7,0,1.6,0h18c0.9,0,1.6,0.7,1.6,1.6v3.2c0,0.7-0.5,1.3-1.2,1.6c-0.8,0.2-1.3,1-1.3,1.8
				s0.5,1.5,1.3,1.8c0.7,0.2,1.2,0.9,1.2,1.6v3.2C21.2,15.5,20.5,16.2,19.6,16.2z M1.6,1.2c-0.2,0-0.4,0.2-0.4,0.4v3.1
				c0,0.2,0.2,0.3,0.3,0.4c1.3,0.4,2.2,1.6,2.2,3s-0.9,2.6-2.2,3c-0.2,0-0.3,0.2-0.3,0.4v3.1c0,0.2,0.2,0.4,0.4,0.4h18
				c0.2,0,0.4-0.2,0.4-0.4v-3.2c0-0.2-0.2-0.3-0.3-0.4c-1.3-0.4-2.2-1.6-2.2-3s0.9-2.6,2.2-3C19.8,5.1,20,5,20,4.8V1.6
				c0-0.2-0.2-0.4-0.4-0.4H1.6z"/>
		</g>
	</g>
	<g>
		<g>
			<rect x="14.4" y="0.6" fill="#FFFFFF" width="1" height="0.6"/>
		</g>
		<g>
			<path fill="#FFFFFF" d="M15.4,13.8h-1v-1.2h1V13.8z M15.4,11.2h-1V10h1V11.2z M15.4,8.8h-1V7.5h1V8.8z M15.4,6.2h-1V5h1V6.2z
				 M15.4,3.8h-1V2.5h1V3.8z"/>
		</g>
		<g>
			<rect x="14.4" y="15" fill="#FFFFFF" width="1" height="0.6"/>
		</g>
	</g>
</g>
</svg>
