<?xml version="1.0" encoding="utf-8"?>
<!-- Generator: Adobe Illustrator 26.5.0, SVG Export Plug-In . SVG Version: 6.00 Build 0)  -->
<svg version="1.1" id="Layer_1" xmlns="http://www.w3.org/2000/svg" xmlns:xlink="http://www.w3.org/1999/xlink" x="0px" y="0px"
	 viewBox="0 0 23 16" style="enable-background:new 0 0 23 16;" xml:space="preserve">
<style type="text/css">
	.st0{fill:none;stroke:#231F20;stroke-linecap:round;stroke-linejoin:round;stroke-miterlimit:10;}
	.st1{fill:none;stroke:#BE6A15;stroke-linecap:round;stroke-linejoin:round;stroke-miterlimit:10;}
</style>
<path class="st0" d="M13.9,5V1.5c0-0.8-0.8-1.2-1.5-0.8L7.2,3.7L6.7,4H1.5c-0.5,0-1,0.4-1,1v5.3c0,0.5,0.4,1,1,1h2.4v3.2
	c0,0.5,0.4,1,1,1h1.5c0.5,0,1-0.4,1-1v-2.9l5.1,3c0.6,0.4,1.5-0.1,1.5-0.8v-3.5c1.5,0,2.6-1.2,2.6-2.7C16.5,6.2,15.3,5,13.9,5z"/>
<line class="st1" x1="19.5" y1="10.4" x2="21.1" y2="12"/>
<line class="st1" x1="20.2" y1="7.6" x2="22.5" y2="7.6"/>
<line class="st1" x1="19.5" y1="4.9" x2="21.1" y2="3.2"/>
<line class="st0" x1="13.9" y1="10.3" x2="13.9" y2="5"/>
</svg>
