<?xml version="1.0" encoding="utf-8"?>
<!-- Generator: Adobe Illustrator 24.2.1, SVG Export Plug-In . SVG Version: 6.00 Build 0)  -->
<svg version="1.1" id="Layer_1" xmlns="http://www.w3.org/2000/svg" xmlns:xlink="http://www.w3.org/1999/xlink" x="0px" y="0px"
	 viewBox="0 0 28.57 20" style="enable-background:new 0 0 28.57 20;" xml:space="preserve">
<style type="text/css">
	.st0{fill:#FFFFFF;}
</style>
<path class="st0" d="M28,3.14c-0.36-1.21-1.29-2.21-2.5-2.5C23.21,0,14.29,0,14.29,0S5.36,0,3.07,0.57
	c-1.14,0.36-2.14,1.36-2.5,2.57C0,5.36,0,10,0,10s0,4.64,0.57,6.86c0.36,1.21,1.29,2.21,2.5,2.5C5.36,20,14.29,20,14.29,20
	s8.93,0,11.21-0.57c1.21-0.36,2.21-1.29,2.5-2.5c0.57-2.29,0.57-6.93,0.57-6.93S28.57,5.36,28,3.14z M11.43,14.29V5.71L18.86,10
	L11.43,14.29z"/>
</svg>
