<?xml version="1.0" encoding="utf-8"?>
<!-- Generator: Adobe Illustrator 26.5.0, SVG Export Plug-In . SVG Version: 6.00 Build 0)  -->
<svg version="1.1" id="Layer_1" xmlns="http://www.w3.org/2000/svg" xmlns:xlink="http://www.w3.org/1999/xlink" x="0px" y="0px"
	 viewBox="0 0 16 16" enable-background="new 0 0 16 16" xml:space="preserve">
<path fill="#FFFFFF" d="M16,8c0-2.1-0.8-4.1-2.3-5.7C12.2,0.8,10.2,0,8.1,0l0,0l0,0l0,0l0,0l0,0l0,0C5.8,0,3.8,0.8,2.3,2.3
	c-3.1,3.1-3.1,8.2,0,11.3C3.9,15.2,5.9,16,7.9,16l0,0c0,0,0,0,0.1,0l0,0l0,0c0,0,0,0,0.1,0l0,0c2,0,4-0.8,5.6-2.3
	C15.2,12.1,16,10.1,16,8z M1,8.5h2.6c0,0.9,0.1,1.9,0.4,2.7H1.8C1.3,10.4,1.1,9.4,1,8.5z M15,7.5h-2.6c0-0.9-0.1-1.9-0.4-2.7h2.2
	C14.6,5.6,14.9,6.5,15,7.5z M11.4,7.5H8.5V4.8H11C11.3,5.6,11.4,6.6,11.4,7.5z M8.5,3.8V1.1C9.2,1.3,9.8,2,10.3,2.9
	c0.1,0.3,0.3,0.6,0.4,0.8L8.5,3.8L8.5,3.8z M7.5,1.1v2.7H5.3C5.4,3.5,5.5,3.2,5.7,3C6.2,2,6.8,1.3,7.5,1.1z M7.5,4.8v2.7H4.6
	c0-0.9,0.2-1.9,0.4-2.7H7.5z M3.6,7.5H1c0.1-0.9,0.3-1.9,0.8-2.7H4C3.7,5.6,3.6,6.6,3.6,7.5z M4.6,8.5h2.9v2.7H5
	C4.7,10.4,4.6,9.4,4.6,8.5z M7.5,12.2v2.7c-0.7-0.2-1.3-0.9-1.8-1.8c-0.1-0.3-0.3-0.6-0.4-0.8L7.5,12.2L7.5,12.2z M8.5,14.9v-2.7
	h2.2c-0.1,0.3-0.2,0.6-0.4,0.8C9.8,14,9.2,14.7,8.5,14.9z M8.5,11.2V8.5h2.9c0,0.9-0.2,1.9-0.4,2.7H8.5z M12.4,8.5H15
	c-0.1,1-0.3,1.9-0.8,2.7H12C12.3,10.4,12.4,9.4,12.4,8.5z M13.6,3.8h-1.8c-0.2-0.5-0.3-0.9-0.6-1.3c-0.2-0.4-0.4-0.7-0.6-1
	c0.9,0.3,1.7,0.9,2.4,1.6C13.2,3.3,13.4,3.5,13.6,3.8z M5.4,1.5C5.2,1.8,5,2.1,4.8,2.5C4.6,2.9,4.4,3.3,4.2,3.8H2.4
	C2.6,3.5,2.8,3.3,3,3.1C3.7,2.4,4.5,1.8,5.4,1.5z M2.4,12.2h1.8c0.2,0.5,0.3,0.9,0.6,1.3c0.2,0.4,0.4,0.7,0.6,1
	c-0.9-0.3-1.7-0.9-2.4-1.6C2.8,12.7,2.6,12.5,2.4,12.2z M10.6,14.5c0.2-0.3,0.4-0.6,0.6-1c0.2-0.4,0.4-0.9,0.6-1.3h1.8
	c-0.2,0.3-0.4,0.5-0.6,0.7C12.3,13.6,11.4,14.2,10.6,14.5z"/>
</svg>
