<?xml version="1.0" encoding="utf-8"?>
<!-- Generator: Adobe Illustrator 26.5.0, SVG Export Plug-In . SVG Version: 6.00 Build 0)  -->
<svg version="1.1" id="Layer_1" xmlns="http://www.w3.org/2000/svg" xmlns:xlink="http://www.w3.org/1999/xlink" x="0px" y="0px"
	 viewBox="0 0 16.2 16.3" enable-background="new 0 0 16.2 16.3" xml:space="preserve">
<g>
	<g>
		<path fill="#FFFFFF" d="M16.2,16.3H0v-0.6c0-3.3,3.6-6,8.1-6s8.1,2.7,8.1,6V16.3z M1.3,15.1h13.6c-0.4-2.3-3.3-4.1-6.8-4.1
			S1.8,12.8,1.3,15.1z"/>
	</g>
	<g>
		<path fill="#FFFFFF" d="M8.1,9.2c-1.2,0-2.4-0.5-3.3-1.4C4,7,3.5,5.9,3.5,4.6c0-1.2,0.5-2.4,1.4-3.3c1.8-1.8,4.7-1.8,6.5,0
			s1.8,4.7,0,6.5C10.5,8.8,9.3,9.2,8.1,9.2z M8.1,1.2c-0.9,0-1.7,0.3-2.4,1c-0.6,0.6-1,1.5-1,2.4c0,0.9,0.4,1.7,1,2.4
			c1.3,1.3,3.5,1.3,4.8,0c1.3-1.3,1.3-3.5,0-4.8C9.9,1.6,9,1.2,8.1,1.2z"/>
	</g>
</g>
</svg>
