<?xml version="1.0" encoding="utf-8"?>
<!-- Generator: Adobe Illustrator 26.5.0, SVG Export Plug-In . SVG Version: 6.00 Build 0)  -->
<svg version="1.1" id="Layer_1" xmlns="http://www.w3.org/2000/svg" xmlns:xlink="http://www.w3.org/1999/xlink" x="0px" y="0px"
	 viewBox="0 0 16.1 16.1" enable-background="new 0 0 16.1 16.1" xml:space="preserve">
<path d="M16.1,15.2l-5.8-5.8c1.8-2.3,1.7-5.6-0.4-7.7C8.8,0.6,7.3,0,5.8,0s-3,0.6-4.1,1.7c-2.3,2.3-2.3,5.9,0,8.2
	c1.1,1.1,2.5,1.7,4.1,1.7c1.3,0,2.6-0.5,3.6-1.3l5.8,5.8L16.1,15.2z M5.8,10.3c-1.2,0-2.3-0.5-3.2-1.3c-1.8-1.8-1.8-4.7,0-6.4
	c0.9-0.9,2-1.3,3.2-1.3S8.1,1.7,9,2.6c1.8,1.8,1.8,4.7,0,6.4C8.1,9.9,7,10.3,5.8,10.3z"/>
</svg>
