<?xml version="1.0" encoding="utf-8"?>
<!-- Generator: Adobe Illustrator 24.2.1, SVG Export Plug-In . SVG Version: 6.00 Build 0)  -->
<svg version="1.1" id="Layer_1" xmlns="http://www.w3.org/2000/svg" xmlns:xlink="http://www.w3.org/1999/xlink" x="0px" y="0px"
	 viewBox="0 0 15 15" style="enable-background:new 0 0 15 15;" xml:space="preserve">
<style type="text/css">
	.st0{fill:#FFFFFF;}
</style>
<path class="st0" d="M7.4,15c-2.1,0-3.8-0.7-5.3-2.2S0,9.6,0,7.5h1.3c0,1.7,0.6,3.2,1.8,4.4s2.7,1.8,4.4,1.8c1.8,0,3.3-0.6,4.5-1.9
	s1.8-2.7,1.8-4.5c0-1.7-0.6-3.2-1.9-4.4S9.2,1.3,7.4,1.3c-0.9,0-1.8,0.2-2.7,0.6s-1.5,1-2.2,1.7h2.2v1.3H0.5V0.5h1.3v2.2
	c0.7-0.8,1.6-1.5,2.6-2S6.3,0,7.4,0c1,0,2,0.2,2.9,0.6c0.9,0.4,1.7,0.9,2.4,1.6s1.2,1.5,1.6,2.4C14.8,5.4,15,6.4,15,7.5
	s-0.2,2-0.6,2.9c-0.4,0.9-0.9,1.7-1.6,2.4c-0.7,0.7-1.5,1.2-2.4,1.6C9.5,14.8,8.5,15,7.4,15z"/>
</svg>
