<?xml version="1.0" encoding="utf-8"?>
<!-- Generator: Adobe Illustrator 24.2.1, SVG Export Plug-In . SVG Version: 6.00 Build 0)  -->
<svg version="1.1" id="Layer_1" xmlns="http://www.w3.org/2000/svg" xmlns:xlink="http://www.w3.org/1999/xlink" x="0px" y="0px"
	 viewBox="0 0 20 20" style="enable-background:new 0 0 20 20;" xml:space="preserve">
<style type="text/css">
	.st0{fill:#FFFFFF;}
</style>
<path class="st0" d="M10,1.8c2.65,0,3,0,4.05,0.05c2.7,0.1,4,1.4,4.1,4.1C18.2,7,18.2,7.3,18.2,10c0,2.65,0,3-0.05,4.05
	c-0.1,2.7-1.4,4-4.1,4.1C13,18.2,12.7,18.2,10,18.2c-2.65,0-3,0-4.05-0.05c-2.7-0.1-4-1.4-4.1-4.1C1.8,13,1.8,12.65,1.8,10
	s0-3,0.05-4.05C2,3.25,3.25,2,5.95,1.85C7,1.8,7.35,1.8,10,1.8z M10,0C7.3,0,6.95,0,5.9,0.05c-3.65,0.2-5.65,2.2-5.85,5.85
	C0,6.95,0,7.3,0,10s0,3.05,0.05,4.1c0.15,3.65,2.2,5.65,5.8,5.8C6.95,20,7.3,20,10,20s3.05,0,4.1-0.05c3.65-0.15,5.65-2.2,5.8-5.8
	C20,13.05,20,12.7,20,10s0-3.05-0.05-4.1c-0.15-3.65-2.2-5.65-5.85-5.85C13.05,0,12.7,0,10,0z M10,4.85c-2.85,0-5.15,2.3-5.15,5.15
	s2.3,5.15,5.15,5.15s5.15-2.3,5.15-5.15S12.85,4.85,10,4.85z M10,13.35c-1.85,0-3.35-1.5-3.35-3.35S8.15,6.65,10,6.65
	s3.35,1.5,3.35,3.35S11.85,13.35,10,13.35z M15.35,3.45c-0.65,0-1.2,0.55-1.2,1.2s0.55,1.2,1.2,1.2s1.2-0.55,1.2-1.2
	S16,3.45,15.35,3.45z"/>
</svg>
