<?xml version="1.0" encoding="utf-8"?>
<!-- Generator: Adobe Illustrator 24.2.1, SVG Export Plug-In . SVG Version: 6.00 Build 0)  -->
<svg version="1.1" id="Layer_1" xmlns="http://www.w3.org/2000/svg" xmlns:xlink="http://www.w3.org/1999/xlink" x="0px" y="0px"
	 viewBox="0 0 16 16" style="enable-background:new 0 0 16 16;" xml:space="preserve">
<style type="text/css">
	.st0{fill:none;stroke:#ACACAC;stroke-miterlimit:10;}
	.st1{fill:none;stroke:#ACACAC;stroke-linecap:round;stroke-linejoin:round;stroke-miterlimit:10;}
</style>
<path class="st0" d="M12.5,5.3h-9V1c0-0.3,0.2-0.5,0.5-0.5h8c0.3,0,0.5,0.2,0.5,0.5V5.3z"/>
<path class="st0" d="M10.7,15.5H5.4c-0.3,0-0.5-0.2-0.5-0.5V9.7c0-0.3,0.2-0.5,0.5-0.5h5.2c0.3,0,0.5,0.2,0.5,0.5V15
	C11.2,15.3,10.9,15.5,10.7,15.5z"/>
<path class="st0" d="M15,5.3H1c-0.3,0-0.5,0.2-0.5,0.5v3.3v3.3C0.5,12.8,0.7,13,1,13h3.9V9.7c0-0.3,0.2-0.5,0.5-0.5h5.2
	c0.3,0,0.5,0.2,0.5,0.5V13H15c0.3,0,0.5-0.2,0.5-0.5V5.8C15.5,5.6,15.3,5.3,15,5.3z"/>
<g>
	<line class="st1" x1="6.7" y1="11.4" x2="9.4" y2="11.4"/>
	<line class="st1" x1="6.7" y1="13.3" x2="9.4" y2="13.3"/>
</g>
</svg>
