<?xml version="1.0" encoding="utf-8"?>
<!-- Generator: Adobe Illustrator 24.2.1, SVG Export Plug-In . SVG Version: 6.00 Build 0)  -->
<svg version="1.1" id="Layer_1" xmlns="http://www.w3.org/2000/svg" xmlns:xlink="http://www.w3.org/1999/xlink" x="0px" y="0px"
	 viewBox="0 0 182.2 229" style="enable-background:new 0 0 182.2 229;" xml:space="preserve">
<style type="text/css">
	.st0{enable-background:new    ;}
</style>
<g>
	<path d="M182.2,123.9c0-24.4-18.6-44.5-42.4-46.8v-60c0-6-3.1-11.4-8.2-14.6c-5.1-3.1-11.4-3.3-16.7-0.6L85.6,17.2
		c-9.8,5.1-21.6,5.1-31.4,0L24.9,2C19.6-0.8,13.3-0.6,8.2,2.5S0,11.1,0,17.1v146.2c0,4.3,3.5,7.7,7.7,7.7h127.4v0
		C161.1,171,182.2,149.9,182.2,123.9z M13,10.4c2.4-1.4,5.1-1.5,7.6-0.2l29.3,15.2c12.5,6.5,27.5,6.5,40,0l29.3-15.2
		c2.4-1.3,5.2-1.2,7.6,0.2c2.3,1.4,3.7,3.9,3.7,6.6v36.3c-8.5-11.5-22.1-18.9-37.3-18.9c-24.2,0-44.6,19.1-46.5,43.4
		c-0.2,2.1,0.6,4.3,2,5.8c1.5,1.6,3.5,2.5,5.7,2.5h75.8c-2.3,18.6-18,33.1-37.1,33.1H76.9v0c-12.6,0-23.1,9.2-25.2,21.2H9.3V17.1
		C9.3,14.3,10.7,11.9,13,10.4z M130.2,76.9H56.1c2.3-18.7,18.2-33.1,37.1-33.1C112.2,43.7,128,58.2,130.2,76.9z M92.6,140.5H61.2
		c2-6.9,8.3-11.9,15.7-11.9C84.3,128.6,90.6,133.5,92.6,140.5z M9.3,149.8h42.4c0.8,4.5,2.8,8.6,5.6,11.9h-48V149.8z M135.2,161.7
		L135.2,161.7l-58.2,0l0,0c-7.4,0-13.7-5.1-15.7-11.9h33.3c2.3,0,4.5-1,5.9-2.8c1.5-1.7,2.1-4,1.7-6.3c-0.8-4.7-2.8-8.9-5.7-12.3
		c22.5-1.6,40.7-19.5,43-42c18.8,2.2,33.4,18.2,33.4,37.5C172.9,144.8,156,161.7,135.2,161.7z"/>
	<g>
		<g class="st0">
			<path d="M5.2,193.7h5.9v30.1h17.7v4.6H5.2V193.7z"/>
			<path d="M34.8,193.7h24.5v4.6H40.8v10.5H58v4.5H40.8v10.6h18.8v4.6H34.8V193.7z"/>
			<path d="M66.6,193.7h24.5v4.6H72.6v10.5h17.3v4.5H72.6v10.6h18.8v4.6H66.6V193.7z"/>
			<path d="M129.4,193.7v22.8c0,2.4-0.7,4.6-1.9,6.4c-1.3,1.9-3.1,3.4-5.5,4.4c-2.4,1.1-5,1.6-8.1,1.6c-3.1,0-5.8-0.5-8.2-1.6
				c-2.4-1.1-4.2-2.5-5.5-4.4c-1.3-1.9-1.9-4-1.9-6.4v-22.8h5.9v22.4c0,1.6,0.4,3,1.2,4.2c0.8,1.2,1.9,2.2,3.3,2.9s3.2,1,5.1,1
				c1.9,0,3.6-0.3,5.1-1s2.5-1.7,3.3-2.9s1.2-2.6,1.2-4.2v-22.4C123.5,193.7,129.4,193.7,129.4,193.7z"/>
			<path d="M144.6,193.7l12.4,26.9h0.5l12.4-26.9h7.2v34.7h-5.7v-25.1H171l-11.4,25h-4.7l-11.5-25.1h-0.3v25.1h-5.7v-34.7
				L144.6,193.7L144.6,193.7z"/>
		</g>
	</g>
</g>
</svg>
