<?xml version="1.0" encoding="utf-8"?>
<!-- Generator: Adobe Illustrator 26.5.0, SVG Export Plug-In . SVG Version: 6.00 Build 0)  -->
<svg version="1.1" id="Layer_1" xmlns="http://www.w3.org/2000/svg" xmlns:xlink="http://www.w3.org/1999/xlink" x="0px" y="0px"
	 viewBox="0 0 111 22.8" enable-background="new 0 0 111 22.8" xml:space="preserve">
<g>
	<path fill="#FFFFFF" d="M0,0h3.8v19.5h11.4v2.9H0V0z"/>
	<path fill="#FFFFFF" d="M19.2,0H35v2.9H23v6.8h11.2v2.9H23v6.8h12.1v2.9h-16V0z"/>
	<path fill="#FFFFFF" d="M39.7,0h15.8v2.9h-12v6.8h11.2v2.9H43.5v6.8h12.1v2.9h-16V0z"/>
	<path fill="#FFFFFF" d="M80.3,0v14.7c0,4.7-4,8-10,8c-6.1,0-10.1-3.3-10-8V0h3.8v14.5c0,3,2.4,5.2,6.2,5.2c3.8,0,6.2-2.2,6.2-5.2V0
		H80.3z"/>
	<path fill="#FFFFFF" d="M90.1,0l8,17.4h0.3l8-17.4h4.7v22.4h-3.7V6.2h-0.2l-7.4,16.2h-3L89.3,6.2h-0.2v16.2h-3.7V0H90.1z"/>
</g>
</svg>
