<?xml version="1.0" encoding="utf-8"?>
<!-- Generator: Adobe Illustrator 24.2.1, SVG Export Plug-In . SVG Version: 6.00 Build 0)  -->
<svg version="1.1" id="Layer_1" xmlns="http://www.w3.org/2000/svg" xmlns:xlink="http://www.w3.org/1999/xlink" x="0px" y="0px"
	 viewBox="0 0 185.45 55.22" style="enable-background:new 0 0 185.45 55.22;" xml:space="preserve">
<style type="text/css">
	.st0{fill:#FFFFFF;}
</style>
<path class="st0" d="M45.15,24.9V5.51c0-1.94-0.99-3.7-2.65-4.7c-1.66-1.01-3.67-1.07-5.39-0.18l-9.46,4.92
	c-3.18,1.65-6.98,1.65-10.16,0L8.04,0.63C6.32-0.27,4.3-0.2,2.65,0.8C0.99,1.81,0,3.57,0,5.51v47.22c0,1.38,1.12,2.5,2.5,2.5h41.15
	c8.38,0,15.2-6.82,15.2-15.2C58.85,32.15,52.83,25.65,45.15,24.9z M4.2,3.37C4.97,2.9,5.86,2.88,6.65,3.29l9.46,4.92
	c4.05,2.11,8.88,2.11,12.93,0l9.46-4.92c0.79-0.41,1.69-0.38,2.45,0.08c0.76,0.46,1.2,1.24,1.2,2.14v11.75
	c-2.75-3.71-7.12-6.13-12.06-6.13c-7.81,0-14.41,6.15-15.01,14.01c-0.05,0.69,0.19,1.38,0.66,1.89c0.47,0.51,1.14,0.8,1.84,0.8
	h24.48c-0.73,6.02-5.82,10.7-11.96,10.7h-5.25c-4.06,0-7.44,2.96-8.14,6.85H3V5.51C3,4.61,3.44,3.83,4.2,3.37z M42.06,24.82H18.13
	c0.73-6.04,5.89-10.7,11.97-10.7C36.24,14.12,41.33,18.8,42.06,24.82z M29.91,45.37H19.77c0.64-2.22,2.67-3.85,5.07-3.85
	C27.22,41.52,29.26,43.11,29.91,45.37z M3,48.37h13.7c0.26,1.45,0.89,2.77,1.8,3.85H3V48.37z M43.65,52.22H24.84
	c-2.4,0-4.43-1.63-5.07-3.85h10.76c0.74,0,1.44-0.32,1.91-0.89c0.48-0.56,0.68-1.3,0.56-2.03c-0.26-1.52-0.91-2.88-1.84-3.99
	c7.28-0.52,13.15-6.27,13.91-13.56c6.06,0.71,10.79,5.87,10.79,12.11C55.85,46.75,50.38,52.22,43.65,52.22z"/>
<g>
	<path class="st0" d="M74.42,17.62h3.83v19.46h11.4v2.94H74.42V17.62z"/>
	<path class="st0" d="M93.59,17.62h15.82v2.94H97.42v6.78h11.15v2.91H97.42v6.84h12.13v2.94H93.59V17.62z"/>
	<path class="st0" d="M114.11,17.62h15.82v2.94h-11.99v6.78h11.15v2.91h-11.15v6.84h12.13v2.94h-15.96V17.62z"/>
	<path class="st0" d="M154.68,17.62v14.73c0,1.56-0.42,2.95-1.25,4.16s-2,2.17-3.52,2.85c-1.52,0.69-3.26,1.03-5.24,1.03
		c-2,0-3.76-0.34-5.28-1.03c-1.52-0.69-2.7-1.64-3.52-2.85c-0.82-1.22-1.24-2.6-1.24-4.16V17.62h3.83v14.45
		c0,1.01,0.25,1.91,0.75,2.7c0.5,0.79,1.22,1.41,2.16,1.86c0.94,0.45,2.04,0.67,3.29,0.67s2.35-0.22,3.28-0.67
		c0.93-0.45,1.64-1.07,2.14-1.86c0.5-0.79,0.75-1.69,0.75-2.7V17.62H154.68z"/>
	<path class="st0" d="M164.5,17.62l7.98,17.36h0.31l7.98-17.36h4.67v22.4h-3.66V23.84h-0.24l-7.39,16.15h-3.03l-7.42-16.18h-0.21
		v16.21h-3.66v-22.4H164.5z"/>
</g>
</svg>
